<svg xmlns="http://www.w3.org/2000/svg" width="40.177" height="37.352" viewBox="0 0 40.177 37.352">
  <path id="add_1_" data-name="add (1)" d="M33.9,0H6.278A6.285,6.285,0,0,0,0,6.278V28.249a6.285,6.285,0,0,0,6.278,6.278H21.187A1.569,1.569,0,0,0,22.428,32l-4.1-5.305L29.7,12.22l7.337,8.753V23.62a1.569,1.569,0,1,0,3.139,0V6.278A6.285,6.285,0,0,0,33.9,0ZM30.865,8.722a1.57,1.57,0,0,0-2.437.038L16.342,24.132l-4.115-5.318a1.569,1.569,0,0,0-1.241-.609h0a1.569,1.569,0,0,0-1.242.612l-3.454,4.49a1.569,1.569,0,0,0,2.488,1.914l2.214-2.878,7,9.044H6.278a3.143,3.143,0,0,1-3.139-3.139V6.278A3.143,3.143,0,0,1,6.278,3.139H33.9a3.143,3.143,0,0,1,3.139,3.139v9.809ZM10.986,5.65a4.708,4.708,0,1,0,4.708,4.708A4.713,4.713,0,0,0,10.986,5.65Zm0,6.278a1.569,1.569,0,1,1,1.569-1.569A1.571,1.571,0,0,1,10.986,11.927ZM40.177,29.9a1.569,1.569,0,0,1-1.569,1.569H34.291v4.316a1.569,1.569,0,1,1-3.139,0V31.467H26.837a1.569,1.569,0,1,1,0-3.139h4.316V24.012a1.569,1.569,0,0,1,3.139,0v4.316h4.316A1.569,1.569,0,0,1,40.177,29.9Zm0,0" fill="#02829f"/>
</svg>
