<svg width="20" height="20" viewBox="0 0 20 20" fill="none" xmlns="http://www.w3.org/2000/svg">
<g id="sobicons/saas-sys/Outline/adjustments">
<path id="Icon" d="M9.99967 5.00016V3.3335M9.99967 5.00016C9.0792 5.00016 8.33301 5.74635 8.33301 6.66683C8.33301 7.5873 9.0792 8.3335 9.99967 8.3335M9.99967 5.00016C10.9201 5.00016 11.6663 5.74635 11.6663 6.66683C11.6663 7.5873 10.9201 8.3335 9.99967 8.3335M4.99967 15.0002C5.92015 15.0002 6.66634 14.254 6.66634 13.3335C6.66634 12.413 5.92015 11.6668 4.99967 11.6668M4.99967 15.0002C4.0792 15.0002 3.33301 14.254 3.33301 13.3335C3.33301 12.413 4.0792 11.6668 4.99967 11.6668M4.99967 15.0002V16.6668M4.99967 11.6668V3.3335M9.99967 8.3335V16.6668M14.9997 15.0002C15.9201 15.0002 16.6663 14.254 16.6663 13.3335C16.6663 12.413 15.9201 11.6668 14.9997 11.6668M14.9997 15.0002C14.0792 15.0002 13.333 14.254 13.333 13.3335C13.333 12.413 14.0792 11.6668 14.9997 11.6668M14.9997 15.0002V16.6668M14.9997 11.6668V3.3335" stroke="#0D2339" stroke-width="1.5" stroke-linecap="round" stroke-linejoin="round"/>
</g>
</svg>
