<svg xmlns="http://www.w3.org/2000/svg" width="27" height="27" viewBox="0 0 27 27">
  <g id="Groupe_2901" data-name="Groupe 2901" transform="translate(0.384 0.384)">
    <circle id="Ellipse_67" data-name="Ellipse 67" cx="13.5" cy="13.5" r="13.5" transform="translate(-0.384 -0.384)" fill="#fff" opacity="0.798"/>
    <g id="drag-flick" transform="translate(7.723 5.106)" opacity="0.718">
      <path id="Tracé_861" data-name="Tracé 861" d="M303.972,54.881l-.656-.656a.387.387,0,0,0-.55.543H301.9a.387.387,0,1,0,0,.773h.865a.387.387,0,0,0,.55.543l.656-.656A.387.387,0,0,0,303.972,54.881Z" transform="translate(-291.056 -52.02)"/>
      <path id="Tracé_862" data-name="Tracé 862" d="M206.616,56.085a.387.387,0,0,0,.55-.543h.865a.387.387,0,1,0,0-.773h-.865a.387.387,0,0,0-.55-.543l-.656.656a.387.387,0,0,0,0,.547Z" transform="translate(-199.088 -52.02)"/>
      <path id="Tracé_863" data-name="Tracé 863" d="M261,95.666a.387.387,0,0,0-.387.387v.865a.387.387,0,0,0-.543.55l.656.656a.387.387,0,0,0,.547,0l.656-.656a.387.387,0,0,0-.543-.55v-.865A.387.387,0,0,0,261,95.666Z" transform="translate(-251.108 -91.967)"/>
      <path id="Tracé_864" data-name="Tracé 864" d="M260.615,1.32v.865a.387.387,0,1,0,.773,0V1.32a.387.387,0,0,0,.543-.55l-.656-.656a.387.387,0,0,0-.547,0l-.656.656a.387.387,0,0,0,.543.55Z" transform="translate(-251.108 0)"/>
      <path id="Tracé_865" data-name="Tracé 865" d="M40.543,36.614a1.821,1.821,0,0,0-.638.119,1.72,1.72,0,0,0-1.531-.941,1.823,1.823,0,0,0-.671.126,1.723,1.723,0,0,0-2-.844c0-.192,0-.391,0-.589V32.945c0-.411,0-.6,0-.7h0A1.657,1.657,0,0,0,34,30.652a1.722,1.722,0,0,0-1.72,1.72v5.242a1.76,1.76,0,0,0-1.216,1.631A5.51,5.51,0,0,0,32.3,43.4c.982,1.01,2.518,1.5,4.7,1.5A5.181,5.181,0,0,0,41.3,43.184a4.952,4.952,0,0,0,.965-3.112l0-1.74A1.721,1.721,0,0,0,40.543,36.614Zm-3.551,7.51c-4.614,0-5.229-2.339-5.158-4.858A1,1,0,0,1,32.8,38.3v1.115c0,.14.1.156.126.156s.123-.016.123-.156V32.372A.946.946,0,0,1,34,31.425a.893.893,0,0,1,.938.819s0,3.475,0,4.329c0,0,0,0,0,.005v.179a.154.154,0,1,0,.308,0v-.046a.946.946,0,0,1,1.892.016v.685a.152.152,0,1,0,.3,0v-.039a.887.887,0,0,1,.938-.808.945.945,0,0,1,.944.946l0,.694a.148.148,0,1,0,.3,0v-.053a.886.886,0,0,1,.929-.765.946.946,0,0,1,.946.946l0,1.739C41.492,41.689,40.864,44.125,36.993,44.125Z" transform="translate(-31.056 -29.467)"/>
    </g>
  </g>
</svg>
