<svg width="111" height="109" viewBox="0 0 111 109" fill="none" xmlns="http://www.w3.org/2000/svg">
<path d="M28.0202 17.6171C28.0202 17.6171 44.5805 30.1561 69.7564 6.71051C92.115 -14.1109 110.371 18.7406 110.499 34.4727C110.665 54.8517 88.1403 71.1582 99.0713 84.5435C110.002 97.9288 77.3937 120.032 59.8193 100.903C37.9573 77.1072 32.0347 96.4415 19.5735 96.4415C10.63 96.4415 -7.73195 74.2688 4.66767 57.7729C15.1018 43.8919 9.41122 39.2851 6.65547 34.4727C2.68026 27.5321 12.1207 8.69364 28.0202 17.6171Z" fill="url(#paint0_linear_10743_174544)"/>
<g clip-path="url(#clip0_10743_174544)">
<path d="M83.6798 52.4717V48.8415C83.6838 47.8602 83.4992 46.8878 83.1367 45.9805C82.7742 45.0731 82.241 44.2487 81.5678 43.5549C80.8947 42.8611 80.0949 42.3116 79.2146 41.9381C78.3343 41.5646 77.391 41.3745 76.4391 41.3788H57.4522C56.716 41.3716 55.994 41.1688 55.356 40.7902C54.7179 40.4115 54.1852 39.8697 53.8094 39.2171L52.2307 36.4485C51.5786 35.3372 50.6618 34.416 49.5673 33.7726C48.4728 33.1292 47.237 32.7847 45.9771 32.772L33.5448 32.772C32.5583 32.7719 31.5822 32.9801 30.6767 33.3837C29.7712 33.7874 28.9555 34.3779 28.2798 35.119C27.5986 35.8577 27.0699 36.7313 26.7257 37.6868C26.3815 38.6422 26.2289 39.6598 26.2772 40.6778L26.7925 52.4902H26.3072C25.6577 52.4876 25.0152 52.6289 24.4233 52.9046C23.8314 53.1802 23.3039 53.5838 22.8765 54.0879C22.4491 54.5921 22.1318 55.185 21.9461 55.8266C21.7604 56.4682 21.7106 57.1434 21.8001 57.8066L25.5492 85.7349C25.7963 87.5283 26.6601 89.1706 27.9834 90.3624C29.3067 91.5542 31.0013 92.2162 32.7585 92.2279H77.275C79.0386 92.2166 80.7393 91.5511 82.0658 90.3531C83.3924 89.1551 84.2562 87.5047 84.4991 85.704L88.2019 57.8066C88.2867 57.1402 88.2317 56.4628 88.0404 55.8202C87.8492 55.1776 87.5262 54.5849 87.0934 54.0822C86.6732 53.5728 86.1498 53.1647 85.56 52.8864C84.9702 52.6082 84.3284 52.4666 83.6798 52.4717ZM29.2969 40.5481C29.271 39.9526 29.3611 39.3578 29.5618 38.7988C29.7624 38.2398 30.0696 37.7278 30.4652 37.2931C30.8573 36.8581 31.3315 36.5103 31.8589 36.2713C32.3862 36.0323 32.9553 35.9071 33.5314 35.9034H45.9636C46.6998 35.9107 47.4218 36.1134 48.0599 36.4921C48.698 36.8707 49.2306 37.4125 49.6064 38.0652L51.1852 40.8353C51.8331 41.9511 52.7484 42.8763 53.8433 43.522C54.9382 44.1678 56.1759 44.5123 57.4373 44.5226H76.4272C76.9804 44.5185 77.5289 44.6278 78.0409 44.8442C78.5528 45.0606 79.0179 45.3797 79.4091 45.783C79.8003 46.1863 80.1098 46.6657 80.3197 47.1934C80.5296 47.7211 80.6357 48.2866 80.6317 48.8569V52.4871H29.8286L29.2969 40.5481ZM85.1972 57.3681L81.4944 85.2809C81.3541 86.3313 80.8523 87.2947 80.0805 87.9957C79.3088 88.6966 78.3184 89.0883 77.2899 89.0995H32.7734C31.7474 89.0889 30.759 88.6996 29.9876 88.0021C29.2162 87.3046 28.7129 86.3452 28.5689 85.2979L24.7898 57.3835C24.7573 57.1627 24.7731 56.9371 24.8361 56.7234C24.8991 56.5096 25.0076 56.3131 25.1538 56.1482C25.2959 55.9812 25.471 55.8474 25.6673 55.7558C25.8636 55.6642 26.0767 55.6169 26.2922 55.6171H83.6948C83.9111 55.6118 84.1257 55.6569 84.3227 55.7488C84.5198 55.8408 84.6943 55.9773 84.8332 56.1482C84.9793 56.31 85.088 56.5038 85.1511 56.7151C85.2141 56.9263 85.2299 57.1496 85.1972 57.3681Z" fill="#25B8AA" stroke="#25B8AA" stroke-width="0.5"/>
</g>
<defs>
<linearGradient id="paint0_linear_10743_174544" x1="12.5" y1="2.5" x2="91" y2="108" gradientUnits="userSpaceOnUse">
<stop stop-color="#D0F7F0"/>
<stop offset="1" stop-color="white"/>
</linearGradient>
<clipPath id="clip0_10743_174544">
<rect width="68" height="61" fill="white" transform="translate(21 32)"/>
</clipPath>
</defs>
</svg>
