<svg width="102" height="101" viewBox="0 0 102 101" fill="none" xmlns="http://www.w3.org/2000/svg">
<path d="M76.4457 0H25.5543C11.7172 0 0.5 11.2172 0.5 25.0543V75.9457C0.5 89.7828 11.7172 101 25.5543 101H76.4457C90.2828 101 101.5 89.7828 101.5 75.9457V25.0543C101.5 11.2172 90.2828 0 76.4457 0Z" fill="#B9B9B9" fill-opacity="0.08"/>
<path d="M77.0223 39.8214C77.0217 39.2547 76.7963 38.7114 76.3955 38.3107C75.9948 37.91 75.4515 37.6846 74.8848 37.684H69.5608C69.3364 37.684 69.1213 37.7731 68.9626 37.9318C68.804 38.0904 68.7148 38.3056 68.7148 38.53C68.7148 38.7543 68.804 38.9695 68.9626 39.1282C69.1213 39.2868 69.3364 39.3759 69.5608 39.3759H74.8848C75.003 39.3759 75.1163 39.4229 75.1999 39.5064C75.2834 39.59 75.3303 39.7033 75.3303 39.8214V69.1388L63.6621 54.7921C63.4621 54.5454 63.2095 54.3465 62.9227 54.2101C62.6359 54.0737 62.3222 54.0032 62.0046 54.0037H52.1481C51.9237 54.0037 51.7085 54.0928 51.5499 54.2515C51.3913 54.4101 51.3021 54.6253 51.3021 54.8497C51.3021 55.0741 51.3913 55.2892 51.5499 55.4479C51.7085 55.6065 51.9237 55.6957 52.1481 55.6957H62.0046C62.0708 55.6955 62.1361 55.7103 62.1959 55.7387C62.2556 55.7672 62.3083 55.8086 62.3499 55.8601L74.3978 70.6734H32.8759C32.8097 70.6735 32.7443 70.6588 32.6846 70.6304C32.6248 70.6019 32.5722 70.5604 32.5306 70.509L21.073 56.4215C21.0199 56.3561 20.9863 56.2771 20.9763 56.1935C20.9663 56.1099 20.9801 56.0252 21.0162 55.9492C21.0524 55.8731 21.1093 55.8089 21.1805 55.7639C21.2516 55.7189 21.3341 55.6949 21.4183 55.6949H47.9719C48.1962 55.6949 48.4114 55.6057 48.5701 55.4471C48.7287 55.2884 48.8178 55.0733 48.8178 54.8489C48.8178 54.6245 48.7287 54.4094 48.5701 54.2507C48.4114 54.0921 48.1962 54.0029 47.9719 54.0029H33.1076V47.5217C33.2274 47.5217 33.348 47.5272 33.4686 47.5272H43.412C43.7576 47.527 44.0954 47.4242 44.3826 47.2321C44.6698 47.0399 44.8936 46.7668 45.0257 46.4475C45.1578 46.1281 45.1922 45.7768 45.1246 45.4378C45.057 45.0989 44.8904 44.7876 44.6459 44.5434L43.2155 43.1129C45.1965 40.8677 46.3318 38.0014 46.4255 35.0087H49.2144C49.2726 35.0088 49.3303 35.0204 49.384 35.0428C49.4378 35.0653 49.4865 35.0981 49.5276 35.1394L51.9007 37.5125C51.685 38.0443 51.5865 38.6164 51.6118 39.1897C51.6372 39.763 51.7858 40.3241 52.0476 40.8348C52.3093 41.3454 52.6781 41.7937 53.1288 42.149C53.5794 42.5043 54.1014 42.7583 54.6591 42.8936C55.2167 43.029 55.797 43.0426 56.3604 42.9334C56.9238 42.8243 57.4571 42.595 57.9238 42.2611C58.3906 41.9273 58.7799 41.4968 59.0653 40.9989C59.3507 40.501 59.5253 39.9474 59.5775 39.3759H65.383C65.6074 39.3759 65.8225 39.2868 65.9812 39.1282C66.1399 38.9695 66.229 38.7543 66.229 38.53C66.229 38.3056 66.1399 38.0904 65.9812 37.9318C65.8225 37.7731 65.6074 37.684 65.383 37.684H59.3653C59.1443 37.0589 58.7712 36.4987 58.2797 36.0539C57.7881 35.6091 57.1935 35.2937 56.5495 35.1361C55.9055 34.9786 55.2325 34.9838 54.591 35.1515C53.9496 35.3191 53.36 35.6437 52.8755 36.0962L50.7223 33.9431C50.5244 33.744 50.2889 33.5861 50.0295 33.4785C49.7702 33.371 49.492 33.316 49.2113 33.3167H46.3684C46.1637 31.1425 45.4093 29.056 44.1761 27.2536C44.0495 27.0684 43.8544 26.941 43.6339 26.8996C43.4133 26.8582 43.1854 26.9061 43.0002 27.0328C42.8149 27.1595 42.6876 27.3545 42.6462 27.5751C42.6048 27.7956 42.6527 28.0236 42.7794 28.2088C44.2605 30.379 44.9371 32.9984 44.6924 35.6144C44.4476 38.2304 43.2969 40.6788 41.439 42.5367C41.3604 42.6152 41.298 42.7085 41.2555 42.8111C41.2129 42.9137 41.191 43.0238 41.191 43.1349C41.191 43.246 41.2129 43.356 41.2555 43.4586C41.298 43.5613 41.3604 43.6545 41.439 43.733L43.448 45.7421C43.4559 45.75 43.4613 45.76 43.4635 45.771C43.4657 45.7819 43.4646 45.7933 43.4603 45.8036C43.456 45.8139 43.4488 45.8227 43.4395 45.8289C43.4302 45.8351 43.4192 45.8384 43.4081 45.8384H33.4647C31.6862 45.8394 29.9328 45.4198 28.3475 44.6137C26.7623 43.8076 25.3902 42.6379 24.3434 41.2002C23.2966 39.7625 22.6048 38.0975 22.3244 36.3413C22.0441 34.5851 22.1831 32.7875 22.7303 31.0954C23.2774 29.4032 24.2171 27.8644 25.4726 26.6048C26.728 25.3452 28.2637 24.4005 29.954 23.8478C31.6444 23.2951 33.4415 23.1501 35.1986 23.4247C36.9557 23.6993 38.623 24.3857 40.0641 25.4278C40.2463 25.5598 40.4735 25.6141 40.6958 25.5786C40.918 25.5432 41.117 25.4209 41.2491 25.2387C41.3812 25.0565 41.4354 24.8293 41.4 24.607C41.3645 24.3848 41.2422 24.1858 41.06 24.0537C39.4733 22.9082 37.6479 22.1367 35.7206 21.7972C33.7933 21.4577 31.8142 21.5589 29.9316 22.0932C28.049 22.6276 26.3118 23.5812 24.8502 24.8826C23.3887 26.1841 22.2408 27.7995 21.4925 29.6077C20.7442 31.416 20.4151 33.3702 20.5297 35.3238C20.6443 37.2775 21.1997 39.1798 22.1543 40.8882C23.1088 42.5965 24.4378 44.0666 26.0415 45.1882C27.6452 46.3098 29.4819 47.0538 31.4141 47.3643V54.0037H21.4183C21.0142 54.0038 20.6185 54.1183 20.277 54.3341C19.9354 54.5499 19.662 54.8581 19.4884 55.2229C19.3149 55.5877 19.2482 55.9943 19.2963 56.3954C19.3444 56.7966 19.5051 57.1759 19.76 57.4894L31.2176 71.5761C31.4177 71.823 31.6704 72.0219 31.9574 72.1583C32.2443 72.2948 32.5582 72.3652 32.8759 72.3646H76.1728C76.3965 72.3625 76.6106 72.2727 76.7687 72.1144C76.9269 71.9561 77.0165 71.742 77.0184 71.5182V39.8214H77.0223ZM55.6017 36.7108C56.0569 36.7108 56.502 36.8458 56.8805 37.0987C57.259 37.3517 57.5541 37.7112 57.7283 38.1318C57.9025 38.5524 57.9481 39.0152 57.8593 39.4617C57.7705 39.9082 57.5512 40.3184 57.2293 40.6403C56.9074 40.9622 56.4973 41.1815 56.0507 41.2703C55.6042 41.3591 55.1414 41.3135 54.7208 41.1393C54.3002 40.9651 53.9407 40.67 53.6877 40.2915C53.4348 39.913 53.2998 39.4679 53.2998 39.0127C53.3006 38.4024 53.5434 37.8174 53.9749 37.3859C54.4064 36.9544 54.9914 36.7116 55.6017 36.7108Z" fill="#2B4660"/>
<path d="M50.485 63.9515L53.4046 67.7879C53.5894 68.0292 53.8271 68.2249 54.0994 68.3598C54.3717 68.4948 54.6713 68.5653 54.9752 68.5662H66.3679C66.6306 68.5664 66.8881 68.4931 67.1114 68.3547C67.3347 68.2163 67.5149 68.0182 67.6316 67.7828C67.7483 67.5474 67.7968 67.284 67.7718 67.0225C67.7467 66.761 67.6491 66.5117 67.4898 66.3027L64.5702 62.4663C64.3855 62.2249 64.1478 62.0293 63.8755 61.8944C63.6032 61.7594 63.3035 61.6888 62.9996 61.688H51.607C51.3443 61.6878 51.0867 61.7611 50.8634 61.8995C50.6401 62.0379 50.4599 62.236 50.3433 62.4714C50.2266 62.7068 50.178 62.9701 50.2031 63.2317C50.2281 63.4932 50.3258 63.7425 50.485 63.9515ZM62.9996 63.3799C63.043 63.3801 63.0857 63.3902 63.1245 63.4095C63.1633 63.4288 63.1972 63.4567 63.2235 63.4911L65.7986 66.875H54.9752C54.9319 66.8748 54.8892 66.8647 54.8503 66.8454C54.8115 66.8262 54.7776 66.7982 54.7513 66.7638L52.1762 63.3799H62.9996Z" fill="#2B4660"/>
<path d="M42.1318 67.7204C42.1318 67.9447 42.2209 68.1597 42.3795 68.3183C42.5381 68.4769 42.7532 68.566 42.9774 68.566H48.1527C48.3771 68.566 48.5922 68.4769 48.7509 68.3182C48.9095 68.1596 48.9987 67.9444 48.9987 67.72C48.9987 67.4956 48.9095 67.2805 48.7509 67.1218C48.5922 66.9632 48.3771 66.874 48.1527 66.874H42.979C42.8677 66.8738 42.7576 66.8956 42.6547 66.938C42.5519 66.9805 42.4585 67.0428 42.3798 67.1214C42.3011 67.2 42.2387 67.2934 42.1961 67.3962C42.1536 67.499 42.1317 67.6092 42.1318 67.7204Z" fill="#2B4660"/>
<path d="M46.2624 65.7613C46.4868 65.7613 46.7019 65.6722 46.8606 65.5135C47.0192 65.3549 47.1084 65.1397 47.1084 64.9153C47.1084 64.6909 47.0192 64.4758 46.8606 64.3171C46.7019 64.1585 46.4868 64.0693 46.2624 64.0693H44.0655C43.8411 64.0693 43.6259 64.1585 43.4673 64.3171C43.3086 64.4758 43.2195 64.6909 43.2195 64.9153C43.2195 65.1397 43.3086 65.3549 43.4673 65.5135C43.6259 65.6722 43.8411 65.7613 44.0655 65.7613H46.2624Z" fill="#2B4660"/>
<path d="M39.4571 31.1127C39.4572 30.6107 39.3084 30.12 39.0296 29.7027C38.7507 29.2853 38.3544 28.96 37.8907 28.7679C37.4269 28.5758 36.9167 28.5255 36.4244 28.6235C35.9321 28.7214 35.4799 28.9632 35.125 29.3181L33.4691 30.9741L31.8132 29.3181C31.3372 28.8422 30.6917 28.5748 30.0187 28.5748C29.3456 28.5748 28.7001 28.8422 28.2241 29.3181C27.7482 29.7941 27.4808 30.4396 27.4808 31.1127C27.4808 31.7857 27.7482 32.4312 28.2241 32.9072L29.8801 34.5631L28.2241 36.219C27.7482 36.695 27.4808 37.3405 27.4808 38.0135C27.4808 38.6866 27.7482 39.3321 28.2241 39.8081C28.7001 40.284 29.3456 40.5514 30.0187 40.5514C30.6917 40.5514 31.3372 40.284 31.8132 39.8081L33.4691 38.1521L35.125 39.8081C35.601 40.284 36.2465 40.5514 36.9195 40.5514C37.5926 40.5514 38.2381 40.284 38.7141 39.8081C39.19 39.3321 39.4574 38.6866 39.4574 38.0135C39.4574 37.3405 39.19 36.695 38.7141 36.219L37.0581 34.5631L38.7141 32.9072C38.9504 32.672 39.1378 32.3924 39.2653 32.0843C39.3928 31.7763 39.458 31.446 39.4571 31.1127ZM37.5177 31.7108L35.2636 33.9649C35.185 34.0435 35.1227 34.1367 35.0801 34.2393C35.0376 34.342 35.0157 34.452 35.0157 34.5631C35.0157 34.6742 35.0376 34.7842 35.0801 34.8869C35.1227 34.9895 35.185 35.0827 35.2636 35.1613L37.5177 37.4154C37.6764 37.574 37.7655 37.7892 37.7655 38.0135C37.7655 38.2379 37.6764 38.4531 37.5177 38.6117C37.3591 38.7704 37.1439 38.8595 36.9195 38.8595C36.6952 38.8595 36.48 38.7704 36.3214 38.6117L34.0673 36.3576C33.9887 36.279 33.8955 36.2167 33.7929 36.1741C33.6902 36.1316 33.5802 36.1097 33.4691 36.1097C33.358 36.1097 33.248 36.1316 33.1453 36.1741C33.0427 36.2167 32.9495 36.279 32.8709 36.3576L30.6168 38.6117C30.5383 38.6903 30.445 38.7526 30.3424 38.7951C30.2398 38.8376 30.1297 38.8595 30.0187 38.8595C29.9076 38.8595 29.7976 38.8376 29.6949 38.7951C29.5923 38.7526 29.499 38.6903 29.4205 38.6117C29.3419 38.5332 29.2796 38.4399 29.2371 38.3373C29.1946 38.2346 29.1727 38.1246 29.1727 38.0135C29.1727 37.9024 29.1946 37.7924 29.2371 37.6898C29.2796 37.5872 29.3419 37.4939 29.4205 37.4154L31.6746 35.1613C31.7532 35.0827 31.8155 34.9895 31.8581 34.8869C31.9006 34.7842 31.9225 34.6742 31.9225 34.5631C31.9225 34.452 31.9006 34.342 31.8581 34.2393C31.8155 34.1367 31.7532 34.0435 31.6746 33.9649L29.4205 31.7132C29.2618 31.5545 29.1727 31.3394 29.1727 31.115C29.1727 30.8906 29.2618 30.6755 29.4205 30.5168C29.5791 30.3582 29.7943 30.2691 30.0187 30.2691C30.243 30.2691 30.4582 30.3582 30.6168 30.5168L32.8709 32.7709C32.9495 32.8495 33.0427 32.9119 33.1453 32.9544C33.248 32.997 33.358 33.0189 33.4691 33.0189C33.5802 33.0189 33.6902 32.997 33.7929 32.9544C33.8955 32.9119 33.9887 32.8495 34.0673 32.7709L36.3214 30.5168C36.48 30.3582 36.6952 30.2691 36.9195 30.2691C37.1439 30.2691 37.3591 30.3582 37.5177 30.5168C37.6764 30.6755 37.7655 30.8906 37.7655 31.115C37.7655 31.3394 37.6764 31.5545 37.5177 31.7132V31.7108Z" fill="#2B4660"/>
<path d="M66.6277 36.0841C67.2863 36.0841 67.9301 35.8888 68.4777 35.5229C69.0253 35.157 69.4521 34.6369 69.7041 34.0285C69.9561 33.42 70.0221 32.7505 69.8936 32.1046C69.7651 31.4586 69.448 30.8653 68.9823 30.3996C68.5166 29.9339 67.9233 29.6168 67.2773 29.4883C66.6314 29.3598 65.9619 29.4258 65.3534 29.6778C64.745 29.9298 64.2249 30.3566 63.859 30.9042C63.4931 31.4518 63.2979 32.0956 63.2979 32.7542C63.2989 33.637 63.65 34.4834 64.2743 35.1076C64.8985 35.7319 65.7449 36.083 66.6277 36.0841ZM66.6277 31.1155C66.9518 31.1155 67.2686 31.2116 67.5381 31.3917C67.8076 31.5717 68.0177 31.8276 68.1417 32.1271C68.2657 32.4265 68.2982 32.756 68.2349 33.0739C68.1717 33.3918 68.0156 33.6837 67.7865 33.9129C67.5573 34.1421 67.2653 34.2982 66.9474 34.3614C66.6295 34.4246 66.3 34.3922 66.0006 34.2682C65.7012 34.1441 65.4452 33.9341 65.2652 33.6646C65.0851 33.3951 64.989 33.0783 64.989 32.7542C64.9896 32.3198 65.1625 31.9035 65.4697 31.5964C65.7769 31.2894 66.1934 31.1159 66.6277 31.1155Z" fill="#2B4660"/>
<path d="M58.1006 29.867C58.1791 29.9456 58.2724 30.008 58.375 30.0505C58.4776 30.0931 58.5877 30.115 58.6988 30.115C58.8099 30.115 58.9199 30.0931 59.0225 30.0505C59.1252 30.008 59.2184 29.9456 59.2969 29.867L59.755 29.409L60.213 29.867C60.3716 30.0257 60.5868 30.1148 60.8111 30.1148C61.0355 30.1148 61.2507 30.0257 61.4093 29.867C61.568 29.7084 61.6571 29.4932 61.6571 29.2689C61.6571 29.0445 61.568 28.8293 61.4093 28.6707L60.9513 28.2127L61.4093 27.7547C61.568 27.596 61.6571 27.3808 61.6571 27.1565C61.6571 26.9321 61.568 26.717 61.4093 26.5583C61.2507 26.3997 61.0355 26.3105 60.8111 26.3105C60.5868 26.3105 60.3716 26.3997 60.213 26.5583L59.755 27.0163L59.2969 26.5583C59.1383 26.3997 58.9231 26.3105 58.6988 26.3105C58.4744 26.3105 58.2592 26.3997 58.1006 26.5583C57.9419 26.717 57.8528 26.9321 57.8528 27.1565C57.8528 27.3808 57.9419 27.596 58.1006 27.7547L58.5586 28.2127L58.1006 28.6707C58.022 28.7492 57.9596 28.8425 57.9171 28.9451C57.8746 29.0478 57.8527 29.1578 57.8527 29.2689C57.8527 29.38 57.8746 29.49 57.9171 29.5926C57.9596 29.6953 58.022 29.7885 58.1006 29.867Z" fill="#2B4660"/>
<path d="M22.4718 51.4028C22.5503 51.4814 22.6435 51.5438 22.7462 51.5863C22.8488 51.6288 22.9588 51.6507 23.0699 51.6507C23.181 51.6507 23.2911 51.6288 23.3937 51.5863C23.4963 51.5438 23.5896 51.4814 23.6681 51.4028L24.4651 50.6058L25.2622 51.4028C25.4208 51.5615 25.636 51.6506 25.8604 51.6506C26.0847 51.6506 26.2999 51.5615 26.4585 51.4028C26.6172 51.2442 26.7063 51.029 26.7063 50.8046C26.7063 50.5803 26.6172 50.3651 26.4585 50.2065L25.6615 49.4094L26.4585 48.6124C26.6171 48.4537 26.7061 48.2386 26.706 48.0143C26.7059 47.7901 26.6168 47.575 26.4581 47.4164C26.2995 47.2579 26.0844 47.1689 25.8601 47.1689C25.6358 47.169 25.4207 47.2582 25.2622 47.4168L24.4651 48.2139L23.6681 47.4168C23.5095 47.2582 23.2943 47.1691 23.0699 47.1691C22.8456 47.1691 22.6304 47.2582 22.4718 47.4168C22.3131 47.5755 22.224 47.7906 22.224 48.015C22.224 48.2394 22.3131 48.4545 22.4718 48.6132L23.2688 49.4102L22.4718 50.2073C22.3133 50.3658 22.2242 50.5808 22.2242 50.805C22.2242 51.0292 22.3133 51.2443 22.4718 51.4028Z" fill="#2B4660"/>
</svg>
